<svg width="74" height="74" viewBox="0 0 74 74" fill="none" xmlns="http://www.w3.org/2000/svg">
<path d="M74 54.2942C71.9763 58.1445 71.0084 59.8661 68.4094 63.2686C64.7782 68.0204 59.6513 73.95 53.3128 73.9907C47.6748 74.0314 46.2196 70.8296 38.5681 70.8819C30.9165 70.9139 29.3226 74.0489 23.6779 73.9994C17.3394 73.95 12.4865 68.6078 8.85197 63.8647C-1.31059 50.5602 -2.38336 34.967 3.8976 26.6702C8.34097 20.7871 15.3732 17.3323 21.9757 17.3323C28.6999 17.3323 32.9267 20.5079 38.4869 20.5079C43.8812 20.5079 47.1672 17.3235 54.9439 17.3235C60.8256 17.3235 67.0456 20.0775 71.489 24.8293C56.9507 31.675 59.3128 49.5191 74 54.2942ZM49.042 12.0133C51.8711 8.89296 54.0167 4.4901 53.2383 0C48.6224 0.270453 43.2247 2.8034 40.0706 6.08374C37.2144 9.07035 34.8455 13.5081 35.7694 17.8005C40.805 17.94 46.0166 15.3606 49.042 12.0133Z" fill="white"/>
</svg>
