<svg width="74" height="74" viewBox="0 0 74 74" fill="none" xmlns="http://www.w3.org/2000/svg">
<path d="M71.6398 56.7976C71.1906 56.0656 70.7415 55.3336 70.7415 54.6016C70.7415 53.1375 69.8432 52.0395 68.4957 50.9415C68.0466 50.5755 67.1483 50.2095 66.6991 50.2095C69.394 43.6213 65.3516 37.0331 60.8601 32.275C57.2669 27.8829 51.8771 24.5889 52.3262 18.7327C52.3262 11.7786 53.2245 -1.03174 37.5042 0.0662845C21.3347 0.798302 25.8262 14.3406 25.3771 19.0987C25.3771 23.1248 23.1313 27.1509 19.5381 30.445C18.6398 31.177 17.7415 32.275 17.2924 33.0071C12.8008 37.3992 10.5551 43.2553 10.5551 48.7454C9.65677 49.4774 8.75847 50.2095 8.30931 50.9415C7.86016 51.3075 7.41101 51.6735 7.41101 52.0395C6.96186 52.4055 6.06355 52.7715 5.16525 53.1375C3.36864 53.5035 2.02118 54.2355 1.12288 55.6996C0.673728 56.7976 0.224576 58.2616 0.673728 59.7257C1.12288 60.4577 1.12288 61.1897 0.673728 62.2877C-0.224576 63.7518 -0.224576 65.5818 0.673728 67.4119C2.02118 68.8759 4.26695 69.2419 7.41101 69.6079C9.65677 69.6079 12.3517 70.3399 14.5974 71.0719C16.8432 72.17 19.5381 72.902 22.233 72.902C23.5805 72.902 25.3771 72.536 26.7246 72.17C28.072 71.4379 28.9703 70.7059 29.4195 69.6079C31.2161 69.6079 33.911 68.8759 37.0551 68.8759C39.75 68.8759 42.4449 69.6079 46.0381 69.2419C46.0381 69.6079 46.0381 69.9739 46.4873 70.3399C47.3856 72.17 49.6313 73.634 52.3262 74H53.2245C56.8178 73.634 60.411 72.17 62.6567 69.9739C64.4533 68.5099 66.6991 67.4118 68.9449 66.6798C71.6398 65.5818 73.4364 64.8498 73.8855 63.0197C74.3347 60.4577 73.4364 58.9937 71.6398 56.7976ZM40.6483 9.94852C43.3432 10.3145 45.5889 12.1446 45.1398 14.3406C45.1398 15.4386 44.6906 16.5367 43.7923 17.6347H43.3432C42.4449 17.2687 41.9957 17.2687 41.5466 16.9027C41.9957 16.5367 41.9957 15.8047 42.4449 15.0726C42.4449 13.6086 41.5466 12.5106 40.6483 12.5106C39.3008 12.5106 38.4025 13.6086 38.4025 15.0726V15.4386C37.9534 15.0726 37.0551 15.0726 36.6059 14.7066V14.3406C36.1567 12.5106 37.9534 10.3145 40.6483 9.94852ZM39.3008 17.2687C39.75 17.6347 40.6483 18.0007 41.0974 18.0007C41.5466 18.0007 42.4449 18.3667 42.894 18.7327C43.7923 19.0987 44.6906 19.4647 44.6906 20.5628C44.6906 21.6608 43.3432 22.7588 40.6483 23.4908C39.75 23.8568 39.3008 23.8568 38.8517 24.2228C37.5042 24.9549 36.1567 25.3209 34.3601 25.3209C33.0127 25.3209 31.6652 24.5889 30.7669 23.8568C30.3178 23.4908 29.8686 23.1248 28.9703 22.7588C28.5212 22.3928 27.6229 21.6608 27.1737 20.5628C27.1737 20.1968 27.6229 19.8307 28.072 19.4647C29.4195 18.7327 29.8686 18.3667 30.3178 18.0007L30.7669 17.6347C31.6652 16.5367 33.4618 15.8047 35.2584 15.8047C36.6059 16.1707 37.9534 16.5367 39.3008 17.2687ZM29.8686 10.6805C31.6652 10.6805 33.0127 12.1446 33.4618 14.7066V15.4386C33.0127 15.4386 32.1144 15.8047 31.6652 16.1707V15.4386C31.6652 14.3406 30.7669 13.2426 29.8686 13.6086C28.9703 13.6086 28.5212 14.7066 28.5212 15.8047C28.5212 16.5367 28.9703 16.9027 29.4195 17.2687C29.4195 17.2687 28.9703 17.6347 28.5212 17.6347C27.6229 16.9027 26.7246 15.8047 26.7246 14.7066C26.7246 12.5106 28.072 10.6805 29.8686 10.6805ZM25.3771 69.6079C22.233 70.7059 18.1907 70.3399 15.4957 68.8759C12.8008 67.7779 10.5551 67.4119 7.41101 67.4119C5.16525 67.0458 2.91949 67.0458 2.47034 66.3138C2.02119 65.5818 2.02118 64.4838 2.91949 62.6537C3.36864 61.5557 3.36864 60.4577 2.91949 59.3597C2.47034 58.2616 2.47034 57.5296 2.91949 56.4316C3.36864 55.3336 4.26695 54.9676 5.6144 54.6016C6.96186 54.2355 7.86016 53.8695 8.75847 53.1375C9.20762 52.7715 9.65677 52.4055 10.1059 51.6735C11.4534 50.2095 12.3517 49.4774 13.6991 49.4774C16.3941 49.8434 18.6398 53.1375 20.4364 56.4316C21.3347 57.5296 22.233 58.9937 23.5805 60.0917C25.3771 61.9217 27.6229 64.4838 27.6229 65.9478C27.6229 67.7779 26.7246 68.8759 25.3771 69.6079ZM47.3856 61.5557C47.3856 61.9217 47.3856 61.9217 46.9364 62.2877C41.5466 65.5818 34.3601 65.9478 28.5212 63.3858L25.8263 60.0917C29.8686 59.7257 28.9703 55.3336 20.4364 50.9415C11.4534 46.1834 17.7415 37.3992 20.8856 33.3731C21.3347 33.007 21.3347 33.3731 19.5381 36.3011C18.1907 38.4972 15.4958 43.9873 19.089 48.0134C19.089 45.0853 19.9873 42.1573 21.3347 39.2292C24.4788 34.4711 26.7246 28.981 28.072 23.4908C28.5212 23.8568 28.5212 23.8568 28.9703 23.8568C29.4195 24.2228 29.8686 24.5889 30.3178 24.5889C31.2161 25.6869 33.0127 26.0529 34.3601 26.0529H34.8093C36.6059 26.0529 38.4025 25.6869 39.75 24.5889C40.1991 24.2228 40.6483 23.8568 41.5466 23.8568C42.894 23.4908 44.2415 22.7588 45.5889 21.6608C47.3856 26.4189 49.1822 30.811 51.8771 34.8371C53.6737 37.7652 55.0211 40.6932 55.9195 43.9873C57.2669 43.9873 59.0635 44.3533 60.411 45.0853C64.0042 46.5494 65.3516 47.6474 64.9025 49.4774H64.0042C64.0042 48.3794 63.1059 47.2814 59.9618 46.1834C56.8178 45.0853 54.1228 45.0853 53.2245 47.6474C52.7754 47.6474 52.3262 48.0134 51.8771 48.0134C48.2839 49.4774 48.2839 53.5035 47.8347 57.5296C48.2839 58.9937 47.8347 60.0917 47.3856 61.5557ZM68.0466 63.7518C65.3516 64.4838 63.1059 65.9478 61.3093 67.7779C59.5127 69.9739 56.3686 71.4379 52.7754 71.0719C50.9788 71.0719 49.1822 69.9739 48.733 68.5099C48.2839 66.3138 48.2839 64.1178 49.6313 61.9217C50.0805 60.4577 50.5296 59.3597 50.9788 57.8956C51.4279 53.5035 51.4279 50.9415 53.6737 49.8434C53.6737 51.6735 55.0211 52.7715 56.8177 53.5035C59.0635 53.5035 61.3093 53.1375 63.1059 51.6735H64.0042C65.3516 51.6735 66.25 51.6735 67.1483 52.4055C68.0466 53.1375 68.4957 54.2355 68.4957 54.9676C68.4957 56.0656 69.394 57.1636 69.8432 58.2616C72.0889 60.0917 72.0889 61.1897 72.0889 61.5557C71.6398 62.2877 69.8432 63.0197 68.0466 63.7518ZM27.6229 19.8307C27.1737 19.8307 27.1737 19.8307 27.1737 20.1968C27.1737 20.1968 27.1737 20.5628 27.6229 20.5628C28.072 20.5628 28.072 20.9288 28.072 20.9288C29.4195 22.3928 31.6652 23.1248 34.3601 23.4908C36.6059 23.1248 38.8517 22.7588 41.0974 21.2948L43.7923 20.1968C44.2415 20.1968 44.2415 19.8307 44.2415 19.8307C44.2415 19.4647 44.2415 19.4647 43.7923 19.4647C42.894 19.8307 41.5466 20.1968 40.6483 20.5628C38.8517 21.6608 36.6059 22.3928 34.3601 22.3928C32.1144 22.3928 30.3178 21.2948 28.9703 20.1968C28.5212 20.1968 28.072 19.8307 27.6229 19.8307Z" fill="white"/>
</svg>
